<?xml version="1.0" encoding="UTF-8" standalone="no"?>
<!-- Created with Inkscape (http://www.inkscape.org/) -->

<svg
   version="1.1"
   id="svg9"
   xml:space="preserve"
   width="340.13324"
   height="161.60059"
   viewBox="0 0 340.13324 161.60059"
   sodipodi:docname="logo.svg"
   inkscape:version="1.1.1 (3bf5ae0d25, 2021-09-20)"
   xmlns:inkscape="http://www.inkscape.org/namespaces/inkscape"
   xmlns:sodipodi="http://sodipodi.sourceforge.net/DTD/sodipodi-0.dtd"
   xmlns="http://www.w3.org/2000/svg"
   xmlns:svg="http://www.w3.org/2000/svg"><defs
     id="defs13"><clipPath
       clipPathUnits="userSpaceOnUse"
       id="clipPath23"><path
         d="M 0,0 H 2480 V 3509 H 0 Z"
         clip-rule="evenodd"
         id="path21" /></clipPath><clipPath
       clipPathUnits="userSpaceOnUse"
       id="clipPath35"><path
         d="M 0,62.499996 H 379.16666 V 100 H 0 Z"
         clip-rule="evenodd"
         id="path33" /></clipPath><clipPath
       clipPathUnits="userSpaceOnUse"
       id="clipPath49"><path
         d="M 379.16666,62.499996 H 2479.1665 V 100 H 379.16666 Z"
         clip-rule="evenodd"
         id="path47" /></clipPath><clipPath
       clipPathUnits="userSpaceOnUse"
       id="clipPath63"><path
         d="m 0,3408.3333 h 2308.3333 v 37.5 H 0 Z"
         clip-rule="evenodd"
         id="path61" /></clipPath><clipPath
       clipPathUnits="userSpaceOnUse"
       id="clipPath77"><path
         d="m 2308.3333,3408.3333 h 170.8333 v 37.5 h -170.8333 z"
         clip-rule="evenodd"
         id="path75" /></clipPath><clipPath
       clipPathUnits="userSpaceOnUse"
       id="clipPath99"><path
         d="M 120.83332,120.83332 H 2362.4998 V 3391.1028 H 120.83332 Z"
         clip-rule="evenodd"
         id="path97" /></clipPath><clipPath
       clipPathUnits="userSpaceOnUse"
       id="clipPath111"><path
         d="M 145.84494,145.84494 H 1208.8388 V 805.52646 H 145.84494 Z"
         clip-rule="evenodd"
         id="path109" /></clipPath><linearGradient
       x1="0"
       y1="0"
       x2="1"
       y2="0"
       gradientUnits="userSpaceOnUse"
       gradientTransform="matrix(13.52352,0,0,-8.6961587,-101.14669,195.44279)"
       spreadMethod="pad"
       id="linearGradient121"><stop
         style="stop-opacity:1;stop-color:#616161"
         offset="0"
         id="stop115" /><stop
         style="stop-opacity:1;stop-color:#e6e7e8"
         offset="0.5"
         id="stop117" /><stop
         style="stop-opacity:1;stop-color:#616161"
         offset="1"
         id="stop119" /></linearGradient><linearGradient
       x1="0"
       y1="0"
       x2="1"
       y2="0"
       gradientUnits="userSpaceOnUse"
       gradientTransform="matrix(10.220159,0,0,-8.12616,-102.39709,194.53031)"
       spreadMethod="pad"
       id="linearGradient131"><stop
         style="stop-opacity:1;stop-color:#616161"
         offset="0"
         id="stop125" /><stop
         style="stop-opacity:1;stop-color:#e6e7e8"
         offset="0.5"
         id="stop127" /><stop
         style="stop-opacity:1;stop-color:#616161"
         offset="1"
         id="stop129" /></linearGradient><linearGradient
       x1="0"
       y1="0"
       x2="1"
       y2="0"
       gradientUnits="userSpaceOnUse"
       gradientTransform="matrix(8.00544,0,0,-12.803998,-110.34133,199.01328)"
       spreadMethod="pad"
       id="linearGradient141"><stop
         style="stop-opacity:1;stop-color:#616161"
         offset="0"
         id="stop135" /><stop
         style="stop-opacity:1;stop-color:#e6e7e8"
         offset="0.5"
         id="stop137" /><stop
         style="stop-opacity:1;stop-color:#616161"
         offset="1"
         id="stop139" /></linearGradient><linearGradient
       x1="0"
       y1="0"
       x2="1"
       y2="0"
       gradientUnits="userSpaceOnUse"
       gradientTransform="matrix(4.0070396,0,0,-4.5323993,-92.216048,201.75456)"
       spreadMethod="pad"
       id="linearGradient151"><stop
         style="stop-opacity:1;stop-color:#616161"
         offset="0"
         id="stop145" /><stop
         style="stop-opacity:1;stop-color:#e6e7e8"
         offset="0.5"
         id="stop147" /><stop
         style="stop-opacity:1;stop-color:#616161"
         offset="1"
         id="stop149" /></linearGradient><linearGradient
       x1="0"
       y1="0"
       x2="1"
       y2="0"
       gradientUnits="userSpaceOnUse"
       gradientTransform="matrix(4.4104795,0,0,-5.5168795,-92.089808,199.74936)"
       spreadMethod="pad"
       id="linearGradient161"><stop
         style="stop-opacity:1;stop-color:#616161"
         offset="0"
         id="stop155" /><stop
         style="stop-opacity:1;stop-color:#e6e7e8"
         offset="0.5"
         id="stop157" /><stop
         style="stop-opacity:1;stop-color:#616161"
         offset="1"
         id="stop159" /></linearGradient><linearGradient
       x1="0"
       y1="0"
       x2="1"
       y2="0"
       gradientUnits="userSpaceOnUse"
       gradientTransform="matrix(4.3790403,0,0,-5.07552,-96.468849,200.29872)"
       spreadMethod="pad"
       id="linearGradient171"><stop
         style="stop-opacity:1;stop-color:#616161"
         offset="0"
         id="stop165" /><stop
         style="stop-opacity:1;stop-color:#e6e7e8"
         offset="0.5"
         id="stop167" /><stop
         style="stop-opacity:1;stop-color:#616161"
         offset="1"
         id="stop169" /></linearGradient><linearGradient
       x1="0"
       y1="0"
       x2="1"
       y2="0"
       gradientUnits="userSpaceOnUse"
       gradientTransform="matrix(9.8315997,0,0,-5.7532796,-101.75965,199.94352)"
       spreadMethod="pad"
       id="linearGradient181"><stop
         style="stop-opacity:1;stop-color:#616161"
         offset="0"
         id="stop175" /><stop
         style="stop-opacity:1;stop-color:#e6e7e8"
         offset="0.5"
         id="stop177" /><stop
         style="stop-opacity:1;stop-color:#616161"
         offset="1"
         id="stop179" /></linearGradient><linearGradient
       x1="0"
       y1="0"
       x2="1"
       y2="0"
       gradientUnits="userSpaceOnUse"
       gradientTransform="matrix(5.2250398,0,0,-6.1454399,-102.42997,201.73655)"
       spreadMethod="pad"
       id="linearGradient191"><stop
         style="stop-opacity:1;stop-color:#616161"
         offset="0"
         id="stop185" /><stop
         style="stop-opacity:1;stop-color:#e6e7e8"
         offset="0.5"
         id="stop187" /><stop
         style="stop-opacity:1;stop-color:#616161"
         offset="1"
         id="stop189" /></linearGradient><linearGradient
       x1="0"
       y1="0"
       x2="1"
       y2="0"
       gradientUnits="userSpaceOnUse"
       gradientTransform="matrix(7.2856793,0,0,-6.2054396,-109.60549,201.45527)"
       spreadMethod="pad"
       id="linearGradient201"><stop
         style="stop-opacity:1;stop-color:#616161"
         offset="0"
         id="stop195" /><stop
         style="stop-opacity:1;stop-color:#e6e7e8"
         offset="0.5"
         id="stop197" /><stop
         style="stop-opacity:1;stop-color:#616161"
         offset="1"
         id="stop199" /></linearGradient><linearGradient
       x1="0"
       y1="0"
       x2="1"
       y2="0"
       gradientUnits="userSpaceOnUse"
       gradientTransform="matrix(6.1449599,0,0,-3.6393593,-109.09021,203.53607)"
       spreadMethod="pad"
       id="linearGradient211"><stop
         style="stop-opacity:1;stop-color:#616161"
         offset="0"
         id="stop205" /><stop
         style="stop-opacity:1;stop-color:#e6e7e8"
         offset="0.5"
         id="stop207" /><stop
         style="stop-opacity:1;stop-color:#616161"
         offset="1"
         id="stop209" /></linearGradient><linearGradient
       x1="0"
       y1="0"
       x2="1"
       y2="0"
       gradientUnits="userSpaceOnUse"
       gradientTransform="matrix(4.6384801,0,0,-3.9511202,-110.84053,203.25888)"
       spreadMethod="pad"
       id="linearGradient221"><stop
         style="stop-opacity:1;stop-color:#616161"
         offset="0"
         id="stop215" /><stop
         style="stop-opacity:1;stop-color:#e6e7e8"
         offset="0.5"
         id="stop217" /><stop
         style="stop-opacity:1;stop-color:#616161"
         offset="1"
         id="stop219" /></linearGradient><linearGradient
       x1="0"
       y1="0"
       x2="1"
       y2="0"
       gradientUnits="userSpaceOnUse"
       gradientTransform="matrix(4.9243198,0,0,-1.7719197,-109.35085,204.7992)"
       spreadMethod="pad"
       id="linearGradient231"><stop
         style="stop-opacity:1;stop-color:#616161"
         offset="0"
         id="stop225" /><stop
         style="stop-opacity:1;stop-color:#e6e7e8"
         offset="0.5"
         id="stop227" /><stop
         style="stop-opacity:1;stop-color:#616161"
         offset="1"
         id="stop229" /></linearGradient><linearGradient
       x1="0"
       y1="0"
       x2="1"
       y2="0"
       gradientUnits="userSpaceOnUse"
       gradientTransform="matrix(12.143759,0,0,-4.1419195,-104.49421,204.95904)"
       spreadMethod="pad"
       id="linearGradient241"><stop
         style="stop-opacity:1;stop-color:#616161"
         offset="0"
         id="stop235" /><stop
         style="stop-opacity:1;stop-color:#e6e7e8"
         offset="0.5"
         id="stop237" /><stop
         style="stop-opacity:1;stop-color:#616161"
         offset="1"
         id="stop239" /></linearGradient><linearGradient
       x1="0"
       y1="0"
       x2="1"
       y2="0"
       gradientUnits="userSpaceOnUse"
       gradientTransform="matrix(73.783773,0,0,-22.745421,-136.23083,181.95585)"
       spreadMethod="pad"
       id="linearGradient253"><stop
         style="stop-opacity:1;stop-color:#51504f"
         offset="0"
         id="stop247" /><stop
         style="stop-opacity:1;stop-color:#939598"
         offset="0.5"
         id="stop249" /><stop
         style="stop-opacity:1;stop-color:#51504f"
         offset="1"
         id="stop251" /></linearGradient></defs><sodipodi:namedview
     id="namedview11"
     pagecolor="#ffffff"
     bordercolor="#666666"
     borderopacity="1.0"
     inkscape:pageshadow="2"
     inkscape:pageopacity="0.0"
     inkscape:pagecheckerboard="0"
     showgrid="false"
     fit-margin-top="0"
     fit-margin-left="0"
     fit-margin-right="0"
     fit-margin-bottom="0"
     inkscape:zoom="1.4142136"
     inkscape:cx="102.88404"
     inkscape:cy="105.00536"
     inkscape:window-width="1366"
     inkscape:window-height="745"
     inkscape:window-x="-8"
     inkscape:window-y="-8"
     inkscape:window-maximized="1"
     inkscape:current-layer="g15" /><g
     id="g15"
     inkscape:groupmode="layer"
     inkscape:label="Document"
     transform="matrix(0.31999998,0,0,0.31999998,-50.218309,-67.883582)"><g
       id="g17"><g
         id="g19"
         clip-path="url(#clipPath23)"><g
           id="g25"
           transform="scale(4.1666665)"><path
             d="M 0,0 H 793 V 1122 H 0 Z"
             style="fill:#ffffff;fill-opacity:1;fill-rule:nonzero;stroke:none"
             id="path27" /></g></g></g><g
       id="g29"><g
         id="g31"
         clip-path="url(#clipPath35)"><g
           id="g37"
           transform="scale(4.1666665)"><text
             transform="translate(26.453125,22)"
             style="font-variant:normal;font-weight:normal;font-size:8px;font-family:Arial;-inkscape-font-specification:ArialMT;writing-mode:lr-tb;fill:#000000;fill-opacity:1;fill-rule:nonzero;stroke:none"
             id="text41"><tspan
               x="0 4.4492188 6.671875 11.121094 15.570312 17.792969 22.242188 26.691406 28.914062 31.136719 35.585938 37.808594 42.257812 46.707031 48.929688 54.265625"
               y="0"
               sodipodi:role="line"
               id="tspan39">1/21/22, 6:34 PM</tspan></text></g></g></g><g
       id="g43"><g
         id="g45"
         clip-path="url(#clipPath49)"><g
           id="g51"
           transform="scale(4.1666665)"><text
             transform="translate(324.84375,22)"
             style="font-variant:normal;font-weight:normal;font-size:8px;font-family:Arial;-inkscape-font-specification:ArialMT;writing-mode:lr-tb;fill:#000000;fill-opacity:1;fill-rule:nonzero;stroke:none"
             id="text55"><tspan
               x="0 5.7773438 10.226562 14.226562 18.675781 25.339844 29.789062 34.238281"
               y="0"
               sodipodi:role="line"
               id="tspan53">Document</tspan></text></g></g></g><g
       id="g57"><g
         id="g59"
         clip-path="url(#clipPath63)"><g
           id="g65"
           transform="scale(4.1666665)"><text
             transform="translate(26.453125,825)"
             style="font-variant:normal;font-weight:normal;font-size:8px;font-family:Arial;-inkscape-font-specification:ArialMT;writing-mode:lr-tb;fill:#000000;fill-opacity:1;fill-rule:nonzero;stroke:none"
             id="text69"><tspan
               x="0 2.2226562 4 5.7773438 10.226562 12.449219 14.671875 16.894531 19.117188 24.453125 26.675781 28.898438 36.304688 40.753906 45.203125 49.203125 50.980469 53.203125 57.652344 59.875 64.324219 68.773438 70.550781 75 77.222656 81.671875 83.894531 88.34375 90.566406 97.230469"
               y="0"
               sodipodi:role="line"
               id="tspan67">file:///E:/Website/delete.html</tspan></text></g></g></g><g
       id="g71"><g
         id="g73"
         clip-path="url(#clipPath77)"><g
           id="g79"
           transform="scale(4.1666665)"><text
             transform="translate(557.40625,825)"
             style="font-variant:normal;font-weight:normal;font-size:8px;font-family:Arial;-inkscape-font-specification:ArialMT;writing-mode:lr-tb;fill:#000000;fill-opacity:1;fill-rule:nonzero;stroke:none"
             id="text83"><tspan
               x="0"
               y="0"
               id="tspan81">1</tspan></text><text
             transform="translate(561.84375,825)"
             style="font-variant:normal;font-weight:normal;font-size:8px;font-family:Arial;-inkscape-font-specification:ArialMT;writing-mode:lr-tb;fill:#000000;fill-opacity:1;fill-rule:nonzero;stroke:none"
             id="text87"><tspan
               x="0"
               y="0"
               id="tspan85">/</tspan></text><text
             transform="translate(564.0625,825)"
             style="font-variant:normal;font-weight:normal;font-size:8px;font-family:Arial;-inkscape-font-specification:ArialMT;writing-mode:lr-tb;fill:#000000;fill-opacity:1;fill-rule:nonzero;stroke:none"
             id="text91"><tspan
               x="0"
               y="0"
               id="tspan89">1</tspan></text></g></g></g><g
       id="g93"><g
         id="g95"
         clip-path="url(#clipPath99)"><g
           id="g101"
           transform="matrix(3.1264527,0,0,3.1264527,120.83332,120.83332)"><path
             d="M 0,0 H 717 V 1046 H 0 Z"
             style="fill:#ffffff;fill-opacity:1;fill-rule:nonzero;stroke:none"
             id="path103" /></g></g></g><g
       id="g105"
       transform="translate(609.87963,24.306797)"
       inkscape:export-filename="C:\Users\siner\Downloads\logo.png"
       inkscape:export-xdpi="96"
       inkscape:export-ydpi="96"><g
         id="g107"
         clip-path="url(#clipPath111)"
         transform="translate(-35.355341,2.2097088)"><g
           id="g113"
           transform="matrix(3.4573991,0,0,3.4607303,475.18983,309.51787)"
           style="fill:#6c5353"><path
             d="m 42.021,89.822998 56.348003,-36.233997 -15.803001,7.630001 0.008,0.073 -0.047,-0.054 -0.263,0.127003 0.017,0.024 z"
             style="fill:#6c5353;fill-opacity:1;fill-rule:nonzero;stroke:none"
             id="path123" /><path
             d="M 79.394997,61.174 38.895,57.390999 36.811001,91.25 Z"
             style="fill:#6c5353;fill-opacity:1;fill-rule:nonzero;stroke:none"
             id="path133" /><path
             d="M 3.71,38.712002 34.917999,92.061996 37.066002,57.146 Z"
             style="fill:#6c5353;fill-opacity:1;fill-rule:nonzero;stroke:none"
             id="path143" /><path
             d="m 95.209,45.172001 -14.433998,-17.882 -1.543,5.225998 16.695999,13.659 z"
             style="fill:#6c5353;fill-opacity:1;fill-rule:nonzero;stroke:none"
             id="path153" /><path
             d="M 98.135002,50.979 79.758003,35.645 82.280998,58.632 Z"
             style="fill:#6c5353;fill-opacity:1;fill-rule:nonzero;stroke:none"
             id="path163" /><path
             d="M 61.512001,33.498001 79.758003,54.504002 77.424004,33.355999 Z"
             style="fill:#6c5353;fill-opacity:1;fill-rule:nonzero;stroke:none"
             id="path173" /><path
             d="M 59.756001,34.835999 39.466999,54.979 l 40.965,3.828999 z"
             style="fill:#6c5353;fill-opacity:1;fill-rule:nonzero;stroke:none"
             id="path183" /><path
             d="M 58.445,33.191002 36.674,27.365 38.973999,52.971001 Z"
             style="fill:#6c5353;fill-opacity:1;fill-rule:nonzero;stroke:none"
             id="path193" /><path
             d="M 37.132999,54.393002 34.821999,28.537001 6.776,37.639 Z"
             style="fill:#6c5353;fill-opacity:1;fill-rule:nonzero;stroke:none"
             id="path203" /><path
             d="M 8.9230003,35.030998 34.527,26.292 25.659,19.867001 Z"
             style="fill:#6c5353;fill-opacity:1;fill-rule:nonzero;stroke:none"
             id="path213" /><path
             d="M 1.63,26.184 3.25,37.485001 20.957001,21.021999 Z"
             style="fill:#6c5353;fill-opacity:1;fill-rule:nonzero;stroke:none"
             id="path223" /><path
             d="M 28.355,14.604 7.8369999,21.987 26.101,17.108999 Z"
             style="fill:#6c5353;fill-opacity:1;fill-rule:nonzero;stroke:none"
             id="path233" /><path
             d="M 36.750999,24.860001 60.131001,31.195999 77.148003,30.907 78.671997,25.749001 67.950996,19.853001 48.173,14.486 32.256001,13.938 28.073,18.586 Z"
             style="fill:#6c5353;fill-opacity:1;fill-rule:nonzero;stroke:none"
             id="path243" /></g><g
           id="g245"
           transform="matrix(7.4594283,0,0,7.4666152,164.16365,388.88928)"
           style="fill:#483737"><path
             d="m -1.88,39.48 c -0.84,-0.720002 -0.5600001,-1.64 -0.36,-2.599999 0.4,-1.639999 1.39999997,-3 2.20000004,-4.439999 0.2,-0.319999 0.48000002,-0.76 0.92000001,-0.439998 0.31999995,0.240001 0,0.639999 -0.12,0.880001 -0.32000002,0.52 -0.68000001,1 -1,1.52 -0.36000001,0.720002 -0.75999999,1.400002 -1.04000005,2.16 -0.32,0.799999 -0.6400001,1.880001 0.08,2.400002 0.75999996,0.479999 1.6,-0.360001 2.24,-0.880001 0.2,-0.16 0.36,-0.400002 0.6,-0.560002 0.4000001,-0.36 0.72,-1.2 1.28,-0.919998 0.72,0.279999 -0.04,0.880001 -0.04,1.400002 0.04,1.119999 0.4000001,1.400001 1.48,0.84 1.52,-0.799999 2.52,-2.16 3.4400001,-3.520001 0.3199997,-0.560001 0.04,-0.880001 -0.3200002,-1.2 -1,-0.880002 -0.96,-2 -0.8400001,-3.16 0.1599998,-1.120001 0.92,-1.8 2.0400004,-1.8 1.1599999,0.04 1.4400008,0.8 1.5200008,2.040001 -0.04,0.48 -0.32,1.759999 -0.7200006,2.520001 -0.1199999,0.560001 0.1199999,0.880001 1.5199996,0.52 1.84,-0.479999 3.4,-0.880001 5.119999,-1.720001 0.559999,-0.360001 0.959999,-0.32 1.08,-0.04 0.16,0.48 -0.48,0.520001 -0.799999,0.68 -2.28,1 -4.24,2 -6.9200006,1.840001 -0.6800003,-0.04 -0.92,0.400001 -1.1999998,0.84 -0.6799998,1.080002 -1.5199999,2.040001 -2.48,2.880001 -1.48,1.32 -2.0799999,1.400001 -3.72,0.240002 -0.6400001,-0.48 -0.9600001,0 -1.39999999,0.2 -0.80000001,0.400002 -1.64000011,1.080002 -2.55999991,0.32 z M 8.3199997,33.68 C 9.2799997,33.799999 10.08,29.76 8.4799995,29.960001 7.6399994,30.080002 7.2399998,30.84 7.2799997,31.76 c 0.04,0.839998 0.2399998,1.800001 1.04,1.92 z M 34.560001,32.439999 c 0.400002,0.319999 -0.04,0.599998 -0.240001,0.759998 -2.16,2.119999 -4.040001,4.040001 -6.600001,5.639999 -0.479999,0.279999 -0.92,0.560002 -1.399999,0.759999 -0.92,0.36 -1.84,0.400001 -2.64,-0.240002 -0.84,-0.68 -0.799999,-1.639999 -0.6,-2.560001 0.16,-0.680001 0.4,-1.360001 0.6,-2 -1.76,0.84 -2.799999,2.639999 -4.44,3.68 -0.56,0.360001 -1.08,0.759998 -1.680001,1.040001 -0.719999,0.32 -1.399999,0.479999 -2.039999,-0.08 -0.600001,-0.560001 -0.640001,-1.32 -0.480001,-2.040001 0.6,-2.84 4,-5.639999 6.960001,-5.719999 0.559999,0 1.16,0.200001 1.68,0.519998 0.24,0.16 0.440001,0.560002 0.8,0.360001 0.44,-0.240002 0.799999,-1 1.28,-0.200001 0.360001,0.520001 -0.16,0.959999 -0.36,1.439999 -0.48,1 -1.120001,1.959999 -1.360001,3.080002 -0.16,0.720001 -0.4,1.400001 0.32,1.959999 0.719999,0.52 1.36,0.279998 2.039999,-0.08 1.44,-0.68 2.719999,-1.64 3.880001,-2.759998 1.200001,-1.16 2.279999,-2 3.479999,-3.16 0.200001,-0.240002 0.48,-0.64 0.8,-0.400002 l 3e-6,1.2e-5 z M 22.84,34.240002 c 0.32,-0.32 0.68,-0.680001 0.48,-1.200001 -0.280001,-0.68 -0.92,-0.360001 -1.32,-0.439999 -2.440001,0 -5.040001,2 -5.959999,4.520001 -0.2,0.639999 -0.56,1.279999 0.120001,1.799999 0.6,0.52 1.16,0.04 1.6,-0.240002 1.959999,-1.16 3.48,-2.84 5.08,-4.439998 z m 21.32,5.519996 c -0.759998,-0.799999 -0.400002,-1.880001 -0.16,-2.84 0.279999,-1.080002 0.759998,-2.119999 0.959999,-3.200001 0.240002,-1.159999 -0.360001,-1.599998 -1.479999,-1.159999 -1.759999,0.639999 -3.279999,1.720001 -4.599999,3.04 -1.16,1.16 -2.240002,2.32 -3.400001,3.439999 -0.279999,0.279999 -0.560002,0.880001 -1.119999,0.560001 -0.360001,-0.2 -0.240002,-0.720001 -0.16,-1.080001 0.36,-2.279999 1.52,-4.200001 2.439998,-6.279999 0.08,-0.200001 0.32,-0.32 0.439999,-0.200001 0.119999,0.200001 0.200001,0.520001 0.119999,0.720001 -0.48,1.16 -1.040001,2.32 -1.520001,3.48 -0.2,0.479999 -0.439998,1 -0.560001,1.479999 -0.04,0.200001 -0.119999,0.759999 0.360001,0.279999 2,-1.880001 3.68,-4.040001 6.16,-5.36 1.04,-0.560002 2.159999,-1.760001 3.400001,-0.8 1.32,1 0.599999,2.439999 0.240002,3.680001 -0.240002,0.919998 -0.599999,1.759998 -0.759999,2.68 -0.2,1 0.16,1.479999 1.32,1 1.920002,-0.84 3.48,-2.200001 5.079998,-3.439999 1.400002,-1.119999 2.48,-2.040001 3.880001,-3.16 0.200001,-0.2 0.560002,-0.52 0.799999,-0.2 0.16,0.2 -0.2,0.400001 -0.400001,0.560001 -2.400002,2.080002 -4.520001,3.919998 -7.119999,5.760002 -0.400002,0.279999 -0.799999,0.520001 -1.200001,0.680001 -0.880001,0.400001 -1.799999,1.279998 -2.720001,0.36 z m 20.799999,0 c -0.760002,-0.799999 -0.400001,-1.880001 -0.160004,-2.84 0.279999,-1.080002 0.760003,-2.119999 0.96,-3.200001 0.239997,-1.159999 -0.360001,-1.599998 -1.480004,-1.159999 -1.759998,0.639999 -3.279999,1.720001 -4.599998,3.04 -1.16,1.16 -2.240002,2.32 -3.400002,3.439999 -0.279999,0.279999 -0.560001,0.880001 -1.119999,0.560001 -0.36,-0.2 -0.240001,-0.720001 -0.16,-1.080001 0.360001,-2.279999 1.520001,-4.200001 2.439999,-6.279999 0.08,-0.200001 0.32,-0.32 0.439999,-0.200001 0.119999,0.200001 0.2,0.520001 0.119999,0.720001 -0.48,1.16 -1.040001,2.32 -1.520001,3.48 -0.200001,0.479999 -0.439999,1 -0.560001,1.479999 -0.04,0.200001 -0.119999,0.759999 0.36,0.279999 2,-1.880001 3.680001,-4.040001 6.16,-5.36 1.040001,-0.560002 2.160004,-1.760001 3.400002,-0.8 1.319999,1 0.599998,2.439999 0.239998,3.680001 -0.239998,0.919998 -0.599999,1.759998 -0.760003,2.68 -0.199997,1 0.160004,1.479999 1.32,1 1.919998,-0.84 3.480003,-2.200001 5.080002,-3.439999 1.400001,-1.119999 2.480003,-2.040001 3.879997,-3.16 0.199997,-0.2 0.559998,-0.52 0.800003,-0.2 0.160004,0.2 -0.199997,0.400001 -0.400001,0.560001 -2.400002,2.080002 -4.519997,3.919998 -7.120003,5.760002 C 68.47998,39 68.079979,39.240002 67.679985,39.400002 c -0.879997,0.400001 -1.800003,1.279998 -2.720001,0.36 z M 80.239998,27.48 c -0.68,-0.32 0.08,-0.840001 0.199997,-1.280001 0.08,-0.280001 0.199997,-0.520001 0.36,-0.719999 0.08,-0.16 0.239998,-0.360001 0.440003,-0.24 0.160004,0.08 0.199997,0.28 0.279999,0.44 -0.120003,0.280001 -0.239998,0.520001 -0.32,0.760001 C 81,26.960001 80.719994,27.68 80.239998,27.48 Z m 10,5.159999 C 90.360001,33.040001 89.759995,33.079998 89.519997,33.16 86.079994,34.48 83,35.959999 79.879997,37.880001 77,39.639999 74.799995,41.720001 73.68,45 c -0.919998,2.759998 -2.279998,5.400002 -3.760002,7.880001 -1.040001,1.68 -2.400001,2.84 -3.760002,2.920002 -2.799999,0 -3.720001,-1.360001 -2.959999,-3.279999 0.560001,-1.400001 1.400001,-2.560001 2.440002,-3.599998 2.480004,-2.560002 5,-5 7.800003,-7.16 0.839997,-0.639999 1.360001,-1.400002 1.760003,-2.360001 0.879997,-2.2 1.839996,-4.400001 2.760002,-6.560001 0.160003,-0.400002 0.319999,-1.08 0.919998,-0.759998 0.440002,0.240001 -0.04,0.759998 -0.160004,1.080001 -0.639999,1.64 -1.36,3.279999 -2.040001,4.96 -0.120002,0.279998 -0.440002,0.599998 -0.08,0.880001 0.32,0.2 0.599999,-0.119999 0.879998,-0.32 4.839996,-3.119999 6.519996,-3.919998 11.800003,-6.080002 0.319999,-0.16 0.760002,-0.52 0.959999,0.04 v -8e-6 z m -21.159996,20 c 1.800003,-3.159999 3.400001,-6.36 4.519996,-9.84 C 70.080002,45.16 67.080002,48.16 64.479996,51.52 c -0.239998,0.32 -0.360001,0.680001 -0.520001,1.040001 -0.319999,0.680001 -0.599998,1.360001 0.04,2.040001 0.679997,0.680001 1.439999,0.64 2.240002,0.400002 1.239998,-0.400002 2.199997,-1.240002 2.840004,-2.360001 v -4e-6 z m 38.479998,-20.2 c 0.4,0.319999 -0.04,0.599998 -0.24,0.759998 -2.16,2.119999 -4.04,4.040001 -6.6,5.639999 -0.48,0.279999 -0.919997,0.560002 -1.4,0.759999 -0.919998,0.36 -1.839997,0.400001 -2.64,-0.240002 -0.839996,-0.68 -0.800003,-1.639999 -0.599998,-2.560001 0.160003,-0.680001 0.400001,-1.360001 0.599998,-2 -1.760002,0.84 -2.800003,2.639999 -4.440002,3.68 -0.559998,0.360001 -1.080002,0.759998 -1.68,1.040001 -0.720002,0.32 -1.400002,0.479999 -2.040001,-0.08 -0.599999,-0.560001 -0.64,-1.32 -0.480004,-2.040001 0.599999,-2.84 4,-5.639999 6.959999,-5.719999 0.559998,0 1.160004,0.200001 1.680001,0.519998 0.239998,0.16 0.440002,0.560002 0.800003,0.360001 0.440002,-0.240002 0.800003,-1 1.279999,-0.200001 0.36,0.520001 -0.160004,0.959999 -0.360001,1.439999 -0.480003,1 -1.120003,1.959999 -1.360001,3.080002 -0.160003,0.720001 -0.400001,1.400001 0.32,1.959999 0.720001,0.52 1.360001,0.279998 2.040001,-0.08 1.440006,-0.68 2.720006,-1.64 3.879996,-2.759998 1.2,-1.16 2.28,-2 3.48001,-3.16 0.19999,-0.240002 0.48,-0.64 0.8,-0.400002 v 1.2e-5 z m -11.720004,1.800003 c 0.32,-0.32 0.680001,-0.680001 0.480004,-1.200001 -0.279999,-0.68 -0.919998,-0.360001 -1.32,-0.439999 -2.440002,0 -5.040001,2 -5.959999,4.520001 -0.199997,0.639999 -0.559998,1.279999 0.120003,1.799999 0.599998,0.52 1.160003,0.04 1.599998,-0.240002 1.959999,-1.16 3.480003,-2.84 5.080002,-4.439998 z M 113.28,39.560001 c -3.24,1.48 -5.2,-0.279998 -4.84,-3.2 0.12001,-0.959999 0.32,-2.040001 0.72,-3 2.88,-6.880001 6.6,-13.200001 11.92,-18.48 1.08,-1.08 2.28,-2.04 3.72,-2.64 2.40001,-0.96 3.72,0 3.32001,2.48 -0.44,2.880001 -2.12,5.16 -3.96,7.24 -3.6,4 -7.84,7.16 -12.72,9.4 -0.48,0.239999 -0.76,0.52 -0.96,0.959999 -0.52,1.2 -0.96,2.439998 -1.16,3.759998 -0.36,2.759998 1.16,3.920002 3.68,2.84 2.48,-1.080002 4.48,-2.880001 6.51999,-4.52 l 2.44001,-2 c 0.12,-0.08 0.44,-0.200001 0.51999,-0.119999 0.32,0.240001 0.08,0.479999 -0.12,0.639999 -3.04,2.32 -5.52,5 -9.08,6.64 z m -1.36,-9.12 c 3.8,-1.72 7,-4.280001 10.04,-7.039999 2.32,-2.16 4.24,-4.760001 5.28,-7.840001 0.32,-0.84 0.56,-1.92 -0.2,-2.64 -0.88,-0.8 -1.72,0.08 -2.52,0.36 -0.44,0.16 -0.83999,0.479999 -1.19999,0.76 -5.16001,4.44 -8.96,9.959999 -11.76,16.120001 -0.2,0.319999 0.04,0.44 0.36,0.28 z m 27.96,1.999998 c 0.4,0.319999 -0.04,0.599998 -0.24,0.759998 -2.16,2.119999 -4.03999,4.040001 -6.60001,5.639999 -0.47999,0.279999 -0.92,0.560002 -1.39999,0.759999 -0.92,0.36 -1.84,0.400001 -2.64,-0.240002 -0.84,-0.68 -0.8,-1.639999 -0.60001,-2.560001 0.16001,-0.680001 0.4,-1.360001 0.60001,-2 -1.76,0.84 -2.8,2.639999 -4.44,3.68 -0.56,0.360001 -1.08,0.759998 -1.68,1.040001 -0.72,0.32 -1.4,0.479999 -2.04,-0.08 -0.6,-0.560001 -0.64,-1.32 -0.48001,-2.040001 0.6,-2.84 4,-5.639999 6.96,-5.719999 0.56,0 1.16001,0.200001 1.67999,0.519998 0.24001,0.16 0.44001,0.560002 0.80001,0.360001 0.44,-0.240002 0.8,-1 1.28,-0.200001 0.36,0.520001 -0.16001,0.959999 -0.36,1.439999 -0.48,1 -1.12,1.959999 -1.36001,3.080002 -0.16,0.720001 -0.39999,1.400001 0.32001,1.959999 0.72,0.52 1.36,0.279998 2.04,-0.08 1.44,-0.68 2.72,-1.64 3.88,-2.759998 1.2,-1.16 2.28,-2 3.48,-3.16 0.19999,-0.240002 0.47999,-0.64 0.8,-0.400002 l 1e-5,1.2e-5 z m -11.72,1.800003 c 0.32001,-0.32 0.68,-0.680001 0.48,-1.200001 -0.28,-0.68 -0.92,-0.360001 -1.32,-0.439999 -2.44,0 -5.04,2 -5.96,4.520001 -0.2,0.639999 -0.56,1.279999 0.12,1.799999 0.6,0.52 1.16001,0.04 1.6,-0.240002 1.96,-1.16 3.48001,-2.84 5.08,-4.439998 z"
             style="fill:#483737;fill-opacity:1;fill-rule:nonzero;stroke:none"
             id="path255" /></g></g></g></g></svg>
